PathFileType	4	(X/Y/Z)	Walk4.trc
DataRate	CameraRate	NumFrames	NumMarkers	Units	OrigDataRate	OrigDataStartFrame	OrigNumFrames
200.000000	200.000000	6	69	mm	200.000000	847	1013
Frame#	Times		LFHD		LowerBodyModelVer		RCAR		RFHD		RWRU		RACR1		RFA1		RASI		LElbow		LTH3		LTB1		RUA1		LMT1		LACR1		LLFC		LMT5		LTH4		LTH2		LUA1		RTH2		LTB3		LTB2		LTB4		LToe		STRN		RBHD		CLAV		RTH4		RLFC		LLMAL		LASI		PELOrigin		RTH3		LWRU		RBack		LTH1		LFA1		C7		RPSI		LBHD		RMT1		RCAL		RMT5		LPSI		RTH1		RTB2		RToe		LHJC		MidPelvis		OPelvis		RHJC		SACR		XPelvis		YPelvis		ZPelvis		LCAR		RLMAL		LWRR		RWRR		RElbow		RTB1		RTB3		RTB4		RMMAL		LMMAL		T10		RElbowM		LCAL		LElbowM
			X1	Y1	Z1	X2	Y2	Z2	X3	Y3	Z3	X4	Y4	Z4	X5	Y5	Z5	X6	Y6	Z6	X7	Y7	Z7	X8	Y8	Z8	X9	Y9	Z9	X10	Y10	Z10	X11	Y11	Z11	X12	Y12	Z12	X13	Y13	Z13	X14	Y14	Z14	X15	Y15	Z15	X16	Y16	Z16	X17	Y17	Z17	X18	Y18	Z18	X19	Y19	Z19	X20	Y20	Z20	X21	Y21	Z21	X22	Y22	Z22	X23	Y23	Z23	X24	Y24	Z24	X25	Y25	Z25	X26	Y26	Z26	X27	Y27	Z27	X28	Y28	Z28	X29	Y29	Z29	X30	Y30	Z30	X31	Y31	Z31	X32	Y32	Z32	X33	Y33	Z33	X34	Y34	Z34	X35	Y35	Z35	X36	Y36	Z36	X37	Y37	Z37	X38	Y38	Z38	X39	Y39	Z39	X40	Y40	Z40	X41	Y41	Z41	X42	Y42	Z42	X43	Y43	Z43	X44	Y44	Z44	X45	Y45	Z45	X46	Y46	Z46	X47	Y47	Z47	X48	Y48	Z48	X49	Y49	Z49	X50	Y50	Z50	X51	Y51	Z51	X52	Y52	Z52	X53	Y53	Z53	X54	Y54	Z54	X55	Y55	Z55	X56	Y56	Z56	X57	Y57	Z57	X58	Y58	Z58	X59	Y59	Z59	X60	Y60	Z60	X61	Y61	Z61	X62	Y62	Z62	X63	Y63	Z63	X64	Y64	Z64	X65	Y65	Z65	X66	Y66	Z66	X67	Y67	Z67	X68	Y68	Z68	X69	Y69	Z69

847	4.235	334.26	1589.9	75.562	9	2014	4	261.07	775.91	423.29	338.11	1586.6	173.2	218.1	826.88	441.5	210.49	1368.7	291.68	226.79	935.17	415.84	323.02	961.76	252.81	165.32	1096.6	-197.81	301.6	581.9	-149.92	264.59	345.4	-70.446	187.29	1221.3	373.47	121.87	61.871	-63.018	218.22	1383.5	-68.873	281.01	509.84	-138.13	75.236	79.394	-132.56	290.93	668.49	-162.4	346	677.46	-138.35	208.38	1240.7	-154.93	303.57	639.91	240.23	142.78	225.16	-62.032	175.12	310.6	-116.17	201.49	287.87	-65.838	150.56	42.467	-81.68	357.14	1240.1	122.39	168.26	1578.8	188.03	287.77	1353.1	114.18	248.03	641.43	265.28	237.34	461.78	227.26	28.322	188.14	-89.913	297.16	992.21	-98.994	310.09	976.99	76.909	241.28	555.66	245.87	265.54	876.58	-252.99	76.465	1305	211.97	283.16	752.56	-174.35	252.91	993.69	-219.2	126.05	1419.1	126.24	65.711	983.44	128.54	182.13	1572.2	52.77	351.72	36.167	114.02	163.52	27.34	156.22	342.18	27.542	206.33	66.424	989.32	-5.2028	268.86	719.66	282.35	260.2	273.67	205.85	394.6	34.1	121.13	215.96	876.69	-46.009	188.08	981.68	69.29	310.09	976.99	76.909	233.54	855.99	193.22	66.068	986.38	61.671	389.83	974.85	70.862	312.74	1056.7	83.61	315.93	970.11	156.4	313.7	839.8	-246.45	217.94	64.562	199.4	307.97	887.08	-191.89	257.02	834.57	378.57	152.68	1057.3	407.93	287.23	354.08	141.7	253.82	172.86	124.24	270.53	263.47	132.97	235.83	75.274	114.84	68.181	168.96	-17.697	86.971	1090	82.584	113.34	1042.1	325.58	-19.06	180.66	-27.52	149.7	1055.6	-99.771
848	4.24	338.92	1589.9	75.921	9	2014	4	267.95	776.67	424.64	342.83	1586.7	173.55	224.8	827.49	442.77	215.53	1368.9	292	233	935.74	416.84	326.71	960.94	253.2	168.41	1096.8	-197.37	307.84	582.65	-149.84	274.13	345.75	-70.599	192.29	1221.5	373.99	136.58	60.959	-63.201	222.77	1383.5	-68.523	288.33	510.53	-137.91	89.773	77.563	-132.83	296.38	669.13	-162.4	351.5	678.62	-138.66	212.03	1240.7	-154.57	305.92	639.47	240.6	154.05	223.83	-62.138	185.08	309.83	-116.15	211.81	287.28	-65.88	165.78	42.143	-81.751	361.69	1239.6	122.12	172.97	1578.9	188.48	292.36	1353	114.49	250.38	641.32	265.65	238.69	461.72	227.41	40.273	184.95	-90.072	301.01	991.83	-98.94	313.86	976.38	77.132	243.21	555.58	246.1	265.76	875.69	-253.49	81.104	1305.4	212.7	287.78	753.16	-174.46	254.78	992.91	-219.41	130.71	1419.3	126.68	69.693	983.96	128.9	186.77	1572.3	53.216	351.78	36.169	114.02	163.52	27.365	156.16	342.17	27.522	206.37	70.409	989.84	-4.8479	271.52	719.46	282.77	260.84	273.57	206	394.74	34.069	121.23	219.18	876.53	-46.004	191.95	981.64	69.58	313.86	976.38	77.132	236.66	855.52	193.45	70.051	986.9	62.028	393.59	973.88	71.092	316.88	1056	83.898	319.66	969.41	156.62	313.61	838.49	-247.47	217.98	64.594	199.3	308.79	885.66	-192.74	263.55	835.19	379.73	158.38	1057.5	408.87	288.28	353.92	141.97	254.24	172.78	124.29	271.26	263.35	133.13	235.91	75.247	114.76	80.307	166.45	-17.828	91.124	1090.3	83.031	118.82	1042	326.62	-7.2923	176.25	-27.872	153.18	1055.6	-99.351
849	4.245	343.58	1589.9	76.254	9	2014	4	274.8	777.43	425.98	347.56	1586.7	173.88	231.49	828.09	444.02	220.58	1369	292.29	239.18	936.31	417.81	330.39	960.16	253.59	171.49	1097	-196.94	314.05	583.35	-149.68	283.66	346.05	-70.628	197.25	1221.7	374.47	151.52	59.972	-63.382	227.34	1383.5	-68.173	295.63	511.16	-137.66	104.52	75.631	-133.08	301.78	669.7	-162.37	356.95	679.73	-138.93	215.68	1240.8	-154.23	308.27	639.01	240.98	165.43	222.37	-62.121	195.14	308.89	-116.07	222.18	286.61	-65.8	181.23	41.782	-81.831	366.24	1239	121.79	177.69	1579	188.9	296.96	1352.9	114.76	252.78	641.16	265.98	240.07	461.66	227.55	52.416	181.55	-90.211	304.89	991.43	-98.877	317.64	975.79	77.357	245.15	555.49	246.31	265.94	874.84	-254.02	85.749	1305.8	213.4	292.34	753.66	-174.57	256.63	992.14	-219.65	135.36	1419.5	127.11	73.651	984.46	129.2	191.41	1572.3	53.629	351.85	36.171	114.02	163.52	27.387	156.11	342.16	27.504	206.4	74.405	990.35	-4.5453	274.15	719.25	283.21	261.49	273.45	206.17	394.87	34.03	121.32	222.46	876.35	-45.99	195.83	981.6	69.843	317.64	975.79	77.357	239.81	855.08	193.69	74.028	987.4	62.328	397.36	972.93	71.335	321.02	1055.4	84.18	323.39	968.74	156.84	313.46	837.2	-248.5	218.04	64.632	199.2	309.56	884.25	-193.62	270.07	835.79	380.88	164.05	1057.7	409.76	289.38	353.74	142.27	254.69	172.7	124.34	272.04	263.22	133.3	236	75.22	114.69	92.617	163.77	-17.935	95.263	1090.6	83.451	124.32	1041.9	327.59	4.7249	171.59	-28.188	156.69	1055.6	-98.927
850	4.25	348.24	1589.9	76.562	9	2014	4	281.64	778.17	427.32	352.28	1586.6	174.19	238.15	828.7	445.25	225.64	1369.1	292.54	245.33	936.86	418.77	334.08	959.42	253.98	174.54	1097.2	-196.53	320.24	583.99	-149.44	293.19	346.29	-70.526	202.17	1221.8	374.92	166.66	58.924	-63.576	231.93	1383.4	-67.827	302.9	511.74	-137.38	119.47	73.616	-133.33	307.13	670.2	-162.29	362.34	680.79	-139.17	219.35	1240.9	-153.91	310.61	638.55	241.37	176.93	220.78	-61.986	205.3	307.8	-115.92	232.6	285.88	-65.6	196.88	41.398	-81.938	370.77	1238.5	121.39	182.4	1579.1	189.28	301.56	1352.7	115	255.25	640.95	266.27	241.48	461.6	227.7	64.754	177.96	-90.332	308.81	991.03	-98.805	321.45	975.22	77.586	247.09	555.39	246.51	266.1	874.01	-254.57	90.401	1306.1	214.07	296.84	754.06	-174.69	258.44	991.38	-219.9	140.02	1419.7	127.52	77.585	984.91	129.44	196.05	1572.3	54.01	351.91	36.171	114.02	163.54	27.407	156.05	342.15	27.488	206.43	78.409	990.84	-4.2937	276.76	719.03	283.64	262.17	273.32	206.35	395	33.986	121.42	225.81	876.17	-45.965	199.72	981.55	70.08	321.45	975.22	77.586	242.99	854.67	193.93	77.997	987.88	62.575	401.16	972.02	71.59	325.16	1054.8	84.454	327.14	968.1	157.06	313.26	835.92	-249.55	218.1	64.675	199.12	310.3	882.86	-194.53	276.6	836.38	382.02	169.69	1057.9	410.6	290.53	353.55	142.58	255.15	172.62	124.4	272.84	263.08	133.49	236.09	75.194	114.61	105.11	160.93	-18.021	99.389	1090.9	83.846	129.83	1041.8	328.49	16.998	166.72	-28.466	160.22	1055.7	-98.501
851	4.255	352.91	1589.8	76.845	9	2014	4	288.45	778.91	428.64	356.99	1586.6	174.47	244.79	829.29	446.45	230.71	1369.2	292.77	251.46	937.4	419.7	337.76	958.73	254.35	177.59	1097.4	-196.14	326.4	584.59	-149.13	302.7	346.5	-70.286	207.05	1222	375.35	182.01	57.83	-63.792	236.54	1383.3	-67.488	310.13	512.26	-137.06	134.62	71.541	-133.59	312.44	670.63	-162.17	367.67	681.8	-139.36	223.03	1241	-153.62	312.94	638.09	241.77	188.55	219.08	-61.743	215.58	306.57	-115.71	243.06	285.08	-65.286	212.73	41.005	-82.085	375.29	1237.9	120.93	187.11	1579.1	189.63	306.17	1352.5	115.2	257.79	640.69	266.53	242.92	461.54	227.86	77.288	174.2	-90.436	312.78	990.62	-98.721	325.27	974.68	77.815	249.04	555.27	246.69	266.24	873.22	-255.15	95.062	1306.4	214.72	301.29	754.38	-174.8	260.24	990.62	-220.19	144.68	1419.8	127.93	81.495	985.34	129.63	200.7	1572.3	54.359	351.97	36.17	114.01	163.56	27.425	155.98	342.14	27.473	206.45	82.418	991.3	-4.0911	279.36	718.8	284.07	262.87	273.18	206.53	395.13	33.935	121.52	229.22	875.98	-45.926	203.61	981.5	70.292	325.27	974.68	77.815	246.21	854.3	194.16	81.956	988.32	62.769	404.97	971.15	71.858	329.31	1054.3	84.718	330.9	967.5	157.29	313.02	834.65	-250.6	218.17	64.722	199.05	311.01	881.48	-195.46	283.13	836.97	383.15	175.3	1058.1	411.39	291.72	353.34	142.89	255.62	172.53	124.45	273.67	262.93	133.67	236.18	75.168	114.53	117.8	157.96	-18.09	103.5	1091.1	84.213	135.36	1041.6	329.32	29.532	161.65	-28.705	163.8	1055.7	-98.074
852	4.26	357.58	1589.7	77.102	9	2014	4	295.24	779.64	429.94	361.71	1586.5	174.73	251.4	829.87	447.64	235.78	1369.3	292.96	257.56	937.93	420.63	341.45	958.11	254.72	180.61	1097.6	-195.77	332.55	585.14	-148.74	312.19	346.68	-69.904	211.9	1222.1	375.76	197.55	56.704	-64.035	241.15	1383.2	-67.163	317.31	512.73	-136.71	149.95	69.421	-133.86	317.7	671	-162.01	372.94	682.77	-139.5	226.72	1241	-153.35	315.28	637.63	242.18	200.28	217.29	-61.402	225.96	305.21	-115.44	253.56	284.24	-64.863	228.75	40.617	-82.277	379.79	1237.2	120.42	191.82	1579.1	189.94	310.79	1352.3	115.35	260.43	640.37	266.73	244.39	461.48	228.02	90.02	170.29	-90.529	316.79	990.21	-98.626	329.12	974.16	78.047	251	555.15	246.85	266.34	872.46	-255.75	99.73	1306.7	215.34	305.68	754.61	-174.91	262	989.87	-220.5	149.34	1419.9	128.32	85.379	985.72	129.76	205.36	1572.3	54.675	352.02	36.167	114.01	163.58	27.443	155.92	342.13	27.459	206.48	86.429	991.72	-3.9358	281.95	718.56	284.49	263.61	273.03	206.72	395.25	33.878	121.61	232.7	875.79	-45.872	207.51	981.44	70.479	329.12	974.16	78.047	249.47	853.96	194.4	85.904	988.72	62.912	408.81	970.33	72.136	333.45	1053.7	84.974	334.67	966.94	157.53	312.72	833.41	-251.65	218.24	64.772	198.99	311.67	880.12	-196.41	289.65	837.54	384.26	180.86	1058.2	412.13	292.96	353.11	143.19	256.11	172.43	124.51	274.53	262.77	133.85	236.26	75.145	114.45	130.67	154.85	-18.146	107.6	1091.3	84.552	140.89	1041.4	330.08	42.329	156.38	-28.909	167.41	1055.8	-97.649
